<svg xmlns="http://www.w3.org/2000/svg" width="24" height="24" viewBox="0 0 24 24" fill="none">
<path fill-rule="evenodd" clip-rule="evenodd" d="M14.47 2.47C14.1674 2.16826 13.7573 1.99918 13.33 2H6C4.89543 2 4 2.89543 4 4V20C4 21.1046 4.89543 22 6 22H18C19.1046 22 20 21.1046 20 20V8.67C20.0008 8.24269 19.8317 7.83257 19.53 7.53L14.47 2.47ZM6.95097 19C6.9243 19 6.90164 18.9907 6.88297 18.972C6.8643 18.9533 6.85497 18.9307 6.85497 18.904V16.3C6.85497 16.2707 6.8643 16.2467 6.88297 16.228C6.90164 16.2093 6.9243 16.2 6.95097 16.2H7.92697C8.1963 16.2 8.41764 16.2413 8.59097 16.324C8.76697 16.4067 8.89897 16.5293 8.98697 16.692C9.07764 16.8547 9.1243 17.0533 9.12697 17.288C9.1323 17.4053 9.13497 17.5093 9.13497 17.6C9.13497 17.6907 9.1323 17.7933 9.12697 17.908C9.12164 18.156 9.0763 18.3613 8.99097 18.524C8.90564 18.684 8.7763 18.804 8.60297 18.884C8.4323 18.9613 8.21364 19 7.94697 19H6.95097ZM7.41097 18.54H7.92697C8.0763 18.54 8.19764 18.5187 8.29097 18.476C8.3843 18.4333 8.4523 18.3653 8.49497 18.272C8.5403 18.176 8.5643 18.0507 8.56697 17.896C8.56964 17.816 8.57097 17.7467 8.57097 17.688C8.57364 17.6267 8.57364 17.5667 8.57097 17.508C8.57097 17.4467 8.56964 17.3773 8.56697 17.3C8.56164 17.0813 8.50697 16.92 8.40297 16.816C8.29897 16.712 8.13364 16.66 7.90697 16.66H7.41097V18.54ZM10.7435 19.04C10.5061 19.04 10.3021 19.0013 10.1315 18.924C9.9608 18.844 9.82747 18.7227 9.73147 18.56C9.63547 18.3947 9.58347 18.1893 9.57547 17.944C9.5728 17.8293 9.57147 17.716 9.57147 17.604C9.57147 17.492 9.5728 17.3773 9.57547 17.26C9.58347 17.0173 9.6368 16.8147 9.73547 16.652C9.83414 16.4893 9.9688 16.3667 10.1395 16.284C10.3128 16.2013 10.5141 16.16 10.7435 16.16C10.9728 16.16 11.1741 16.2013 11.3475 16.284C11.5208 16.3667 11.6568 16.4893 11.7555 16.652C11.8541 16.8147 11.9075 17.0173 11.9155 17.26C11.9208 17.3773 11.9235 17.492 11.9235 17.604C11.9235 17.716 11.9208 17.8293 11.9155 17.944C11.9075 18.1893 11.8555 18.3947 11.7595 18.56C11.6635 18.7227 11.5288 18.844 11.3555 18.924C11.1848 19.0013 10.9808 19.04 10.7435 19.04ZM10.7435 18.58C10.9168 18.58 11.0581 18.5293 11.1675 18.428C11.2768 18.324 11.3355 18.156 11.3435 17.924C11.3488 17.8067 11.3515 17.6987 11.3515 17.6C11.3515 17.4987 11.3488 17.3907 11.3435 17.276C11.3381 17.1213 11.3088 16.996 11.2555 16.9C11.2048 16.8013 11.1355 16.7307 11.0475 16.688C10.9595 16.6427 10.8581 16.62 10.7435 16.62C10.6315 16.62 10.5315 16.6427 10.4435 16.688C10.3555 16.7307 10.2848 16.8013 10.2315 16.9C10.1808 16.996 10.1528 17.1213 10.1475 17.276C10.1448 17.3907 10.1435 17.4987 10.1435 17.6C10.1435 17.6987 10.1448 17.8067 10.1475 17.924C10.1555 18.156 10.2141 18.324 10.3235 18.428C10.4328 18.5293 10.5728 18.58 10.7435 18.58ZM13.5287 19.04C13.2807 19.04 13.0701 18.9973 12.8967 18.912C12.7261 18.824 12.5954 18.7 12.5047 18.54C12.4141 18.3773 12.3634 18.1827 12.3527 17.956C12.3501 17.8467 12.3487 17.7293 12.3487 17.604C12.3487 17.4787 12.3501 17.3587 12.3527 17.244C12.3634 17.02 12.4141 16.8267 12.5047 16.664C12.5981 16.5013 12.7301 16.3773 12.9007 16.292C13.0741 16.204 13.2834 16.16 13.5287 16.16C13.7101 16.16 13.8727 16.184 14.0167 16.232C14.1607 16.28 14.2834 16.3467 14.3847 16.432C14.4861 16.5147 14.5647 16.612 14.6207 16.724C14.6767 16.836 14.7061 16.9573 14.7087 17.088C14.7114 17.112 14.7034 17.132 14.6847 17.148C14.6687 17.164 14.6487 17.172 14.6247 17.172H14.2447C14.2154 17.172 14.1914 17.1653 14.1727 17.152C14.1541 17.136 14.1407 17.1107 14.1327 17.076C14.0901 16.9 14.0167 16.78 13.9127 16.716C13.8087 16.652 13.6794 16.62 13.5247 16.62C13.3461 16.62 13.2034 16.6707 13.0967 16.772C12.9901 16.8707 12.9327 17.0347 12.9247 17.264C12.9167 17.4827 12.9167 17.7067 12.9247 17.936C12.9327 18.1653 12.9901 18.3307 13.0967 18.432C13.2034 18.5307 13.3461 18.58 13.5247 18.58C13.6794 18.58 13.8087 18.548 13.9127 18.484C14.0167 18.4173 14.0901 18.2973 14.1327 18.124C14.1407 18.0867 14.1541 18.0613 14.1727 18.048C14.1914 18.0347 14.2154 18.028 14.2447 18.028H14.6247C14.6487 18.028 14.6687 18.036 14.6847 18.052C14.7034 18.068 14.7114 18.088 14.7087 18.112C14.7061 18.2427 14.6767 18.364 14.6207 18.476C14.5647 18.588 14.4861 18.6867 14.3847 18.772C14.2834 18.8547 14.1607 18.92 14.0167 18.968C13.8727 19.016 13.7101 19.04 13.5287 19.04ZM14.9646 19C14.9406 19 14.9206 18.992 14.9046 18.976C14.8886 18.96 14.8806 18.94 14.8806 18.916C14.8806 18.908 14.8819 18.9 14.8846 18.892L14.8926 18.868L15.7886 17.572L14.9486 16.332C14.9406 16.316 14.9366 16.3 14.9366 16.284C14.9366 16.26 14.9446 16.24 14.9606 16.224C14.9766 16.208 14.9953 16.2 15.0166 16.2H15.4286C15.4606 16.2 15.4859 16.208 15.5046 16.224C15.5233 16.24 15.5393 16.2573 15.5526 16.276L16.1406 17.14L16.7326 16.276C16.7433 16.2573 16.7579 16.24 16.7766 16.224C16.7979 16.208 16.8246 16.2 16.8566 16.2H17.2446C17.2686 16.2 17.2886 16.208 17.3046 16.224C17.3206 16.24 17.3286 16.26 17.3286 16.284C17.3286 16.3 17.3233 16.316 17.3126 16.332L16.4766 17.572L17.3726 18.868C17.3779 18.876 17.3819 18.884 17.3846 18.892C17.3873 18.9 17.3886 18.908 17.3886 18.916C17.3886 18.94 17.3793 18.96 17.3606 18.976C17.3446 18.992 17.3259 19 17.3046 19H16.8806C16.8486 19 16.8233 18.992 16.8046 18.976C16.7859 18.96 16.7713 18.944 16.7606 18.928L16.1206 18.024L15.4926 18.928C15.4819 18.944 15.4673 18.96 15.4486 18.976C15.4299 18.992 15.4033 19 15.3686 19H14.9646ZM13 4.38V8.17C13 8.6284 13.3716 9 13.83 9H17.62C17.769 9.00464 17.9055 8.91691 17.9632 8.7794C18.0208 8.64189 17.9878 8.48306 17.88 8.38L13.62 4.12C13.5169 4.01224 13.3581 3.97916 13.2206 4.03683C13.0831 4.09449 12.9954 4.23096 13 4.38Z" fill="#FFFFFF"/>
</svg>