<svg width="24" height="24" viewBox="0 0 24 24" fill="none" xmlns="http://www.w3.org/2000/svg">
<path fill-rule="evenodd" clip-rule="evenodd" d="M8.81994 9.9958H6.31994C6.02817 9.99652 5.76482 9.82109 5.65307 9.55157C5.54132 9.28206 5.60327 8.97175 5.80994 8.7658L11.2899 3.2958C11.4777 3.10649 11.7333 3 11.9999 3C12.2666 3 12.5222 3.10649 12.7099 3.2958L18.1899 8.7658C18.3966 8.97175 18.4585 9.28206 18.3468 9.55157C18.2351 9.82108 17.9717 9.99651 17.6799 9.9958L15.1799 9.9958L15.1799 14.3458C15.1799 15.4504 14.2845 16.3458 13.1799 16.3458L10.8199 16.3458C9.71537 16.3458 8.81994 15.4504 8.81994 14.3458L8.81994 9.9958ZM4.89738 20.6925C4.69801 20.4931 4.58719 20.222 4.58989 19.94C4.58989 19.6589 4.70157 19.3893 4.90036 19.1905C5.09915 18.9917 5.36876 18.88 5.64989 18.88H18.3499C18.9353 18.88 19.4099 19.3546 19.4099 19.94C19.4126 20.222 19.3018 20.4931 19.1024 20.6925C18.903 20.8919 18.6318 21.0027 18.3499 21H5.64989C5.36794 21.0027 5.09676 20.8919 4.89738 20.6925Z" fill="#9C9DA6"/>
</svg>
