<svg width="20" height="20" viewBox="0 0 20 20" fill="none" xmlns="http://www.w3.org/2000/svg">
<path d="M15.6273 17.2762H12.3948H11.5243H11.3363V12.9402H12.7544C13.114 12.9402 13.3265 12.5316 13.114 12.2373L10.3555 8.42041C10.1798 8.17521 9.8161 8.17521 9.64038 8.42041L6.8819 12.2373C6.66939 12.5316 6.87781 12.9402 7.24152 12.9402H8.65958V17.2762H8.4716H7.60114H3.8537C1.70821 17.1576 0 15.1511 0 12.977C0 11.4772 0.813241 10.1695 2.0188 9.4625C1.90846 9.16418 1.85125 8.84542 1.85125 8.51031C1.85125 6.97782 3.0895 5.73957 4.62199 5.73957C4.953 5.73957 5.27176 5.79679 5.57009 5.90712C6.45689 4.02727 8.36943 2.72363 10.5926 2.72363C13.4696 2.72772 15.8398 4.93042 16.1095 7.73794C18.3204 8.118 20 10.1654 20 12.4825C20 14.959 18.0711 17.1045 15.6273 17.2762Z" fill="white"/>
</svg>
