<svg width="24" height="24" viewBox="0 0 24 24" fill="none" xmlns="http://www.w3.org/2000/svg">
<path d="M17.74 6.11003C17.1877 6.11003 16.74 6.55774 16.74 7.11003V15.23C16.74 16.9235 15.8365 18.4883 14.37 19.335C12.9034 20.1817 11.0965 20.1817 9.62995 19.335C8.16339 18.4883 7.25995 16.9235 7.25995 15.23V7.00003C7.0944 5.83817 7.62154 4.68646 8.60909 4.05238C9.59665 3.4183 10.8633 3.4183 11.8508 4.05238C12.8384 4.68646 13.3655 5.83817 13.2 7.00003V15.09C13.1468 15.6384 12.6859 16.0567 12.135 16.0567C11.584 16.0567 11.1232 15.6384 11.07 15.09V7.09003C11.07 6.53774 10.6222 6.09003 10.07 6.09003C9.51767 6.09003 9.06995 6.53774 9.06995 7.09003V15.09C9.1628 16.7149 10.5075 17.9849 12.135 17.9849C13.7624 17.9849 15.1071 16.7149 15.2 15.09V7.00003C15.4097 5.09403 14.5109 3.23597 12.8864 2.2172C11.262 1.19843 9.19795 1.19843 7.57346 2.2172C5.94898 3.23597 5.05022 5.09403 5.25995 7.00003V15.23C5.25995 18.9524 8.27755 21.97 12 21.97C15.7224 21.97 18.74 18.9524 18.74 15.23V7.11003C18.74 6.84481 18.6346 6.59045 18.4471 6.40292C18.2595 6.21538 18.0052 6.11003 17.74 6.11003Z" fill="#9C9DA6"/>
</svg>
