<svg xmlns="http://www.w3.org/2000/svg" width="24" height="24" viewBox="0 0 24 24" fill="none">
<path d="M17.74 6.11C17.1877 6.11 16.74 6.55772 16.74 7.11V15.23C16.74 16.9234 15.8365 18.4882 14.37 19.335C12.9034 20.1817 11.0965 20.1817 9.62995 19.335C8.16339 18.4882 7.25995 16.9234 7.25995 15.23V7C7.0944 5.83814 7.62154 4.68644 8.60909 4.05236C9.59665 3.41828 10.8633 3.41828 11.8508 4.05236C12.8384 4.68644 13.3655 5.83814 13.2 7V15.09C13.1468 15.6384 12.6859 16.0567 12.135 16.0567C11.584 16.0567 11.1232 15.6384 11.07 15.09V7.09C11.07 6.53772 10.6222 6.09 10.07 6.09C9.51767 6.09 9.06995 6.53772 9.06995 7.09V15.09C9.1628 16.7148 10.5075 17.9849 12.135 17.9849C13.7624 17.9849 15.1071 16.7148 15.2 15.09V7C15.4097 5.094 14.5109 3.23594 12.8864 2.21718C11.262 1.19841 9.19795 1.19841 7.57346 2.21718C5.94898 3.23594 5.05022 5.094 5.25995 7V15.23C5.25995 18.9524 8.27755 21.97 12 21.97C15.7224 21.97 18.74 18.9524 18.74 15.23V7.11C18.74 6.84479 18.6346 6.59043 18.4471 6.4029C18.2595 6.21536 18.0052 6.11 17.74 6.11Z" fill="#FFFFFF"/>
</svg>