<svg xmlns="http://www.w3.org/2000/svg" width="24" height="24" viewBox="0 0 24 24" fill="none">
<path d="M13.1805 12.2408L18.0187 7.37993C18.2776 7.11078 18.2776 6.68386 18.0187 6.41471C17.7518 6.14811 17.3217 6.14502 17.051 6.40777L12.2129 11.2686L7.37467 6.40777C7.10678 6.14761 6.68184 6.14761 6.41395 6.40777C6.14858 6.67589 6.14551 7.10803 6.40704 7.37993L11.2452 12.2408L6.40704 17.1016C6.20066 17.378 6.22802 17.7649 6.47124 18.0093C6.71446 18.2536 7.0995 18.2811 7.37467 18.0738L12.2129 13.2129L17.051 18.0738C17.3262 18.2811 17.7113 18.2536 17.9545 18.0093C18.1977 17.7649 18.2251 17.378 18.0187 17.1016L13.1805 12.2408Z" fill="#FFFFFF"/>
</svg>